<svg xmlns="http://www.w3.org/2000/svg" width="21" height="28" viewBox="0 0 21 28" fill="none">
  <g clip-path="url(#clip0_104_1876)">
    <path d="M9.94412 19.6C11.4507 19.5985 12.8951 19.008 13.9604 17.9581C15.0257 16.9082 15.6249 15.4847 15.6265 14V5.6C15.6265 4.11479 15.0278 2.69041 13.9621 1.6402C12.8965 0.589998 11.4512 0 9.94412 0C8.43706 0 6.99173 0.589998 5.92609 1.6402C4.86044 2.69041 4.26176 4.11479 4.26176 5.6V14C4.26333 15.4847 4.86251 16.9082 5.92782 17.9581C6.99313 19.008 8.43754 19.5985 9.94412 19.6Z" fill="#66E650"/>
    <path d="M19.8882 14V11.2C19.8882 10.8287 19.7386 10.4726 19.4722 10.21C19.2057 9.94749 18.8444 9.79999 18.4676 9.79999C18.0909 9.79999 17.7295 9.94749 17.4631 10.21C17.1967 10.4726 17.0471 10.8287 17.0471 11.2V14C17.0471 15.8565 16.2987 17.637 14.9667 18.9497C13.6346 20.2625 11.8279 21 9.94412 21C8.0603 21 6.25364 20.2625 4.92158 18.9497C3.58952 17.637 2.84118 15.8565 2.84118 14V11.2C2.84118 10.8287 2.69151 10.4726 2.4251 10.21C2.15868 9.94749 1.79735 9.79999 1.42059 9.79999C1.04382 9.79999 0.682493 9.94749 0.416081 10.21C0.149669 10.4726 0 10.8287 0 11.2L0 14C0.00403142 16.345 0.860564 18.611 2.4143 20.387C3.96804 22.1631 6.11612 23.3317 8.46907 23.681L8.52353 23.688V25.2H4.26176C4.07521 25.2 3.89048 25.2362 3.71813 25.3066C3.54577 25.3769 3.38917 25.48 3.25726 25.61C3.12534 25.74 3.0207 25.8944 2.94931 26.0642C2.87792 26.2341 2.84118 26.4161 2.84118 26.6C2.84118 26.7838 2.87792 26.9659 2.94931 27.1357C3.0207 27.3056 3.12534 27.4599 3.25726 27.5899C3.38917 27.7199 3.54577 27.8231 3.71813 27.8934C3.89048 27.9638 4.07521 28 4.26176 28H15.6265C15.813 28 15.9977 27.9638 16.1701 27.8934C16.3425 27.8231 16.4991 27.7199 16.631 27.5899C16.7629 27.4599 16.8675 27.3056 16.9389 27.1357C17.0103 26.9659 17.0471 26.7838 17.0471 26.6C17.0471 26.4161 17.0103 26.2341 16.9389 26.0642C16.8675 25.8944 16.7629 25.74 16.631 25.61C16.4991 25.48 16.3425 25.3769 16.1701 25.3066C15.9977 25.2362 15.813 25.2 15.6265 25.2H11.3647V23.688C16.2065 22.9775 19.8799 18.9128 19.8882 14.0012V14Z" fill="#66E650"/>
  </g>
  <defs>
    <clipPath id="clip0_104_1876">
      <rect width="20.125" height="28" fill="white"/>
    </clipPath>
  </defs>
</svg>