<svg xmlns="http://www.w3.org/2000/svg" width="28" height="29" viewBox="0 0 28 29" fill="none">
  <path fill-rule="evenodd" clip-rule="evenodd" d="M4.04131 4.85388C2.33331 6.55989 2.33331 9.30159 2.33331 14.7873C2.33331 20.2731 2.33331 23.0159 4.04131 24.7196C5.75165 26.4245 8.50031 26.4245 14 26.4245C19.4996 26.4245 22.2495 26.4245 23.9575 24.7196C25.6666 23.0171 25.6666 20.2731 25.6666 14.7873C25.6666 9.30159 25.6666 6.55872 23.9575 4.85388C22.2506 3.15021 19.4996 3.15021 14 3.15021C8.50031 3.15021 5.75048 3.15021 4.04131 4.85388ZM16.0416 12.4599C16.0416 12.9417 16.4336 13.3327 16.9166 13.3327H17.7216L15.3731 15.6752C15.3461 15.7023 15.3139 15.7238 15.2784 15.7385C15.243 15.7532 15.205 15.7607 15.1666 15.7607C15.1283 15.7607 15.0903 15.7532 15.0549 15.7385C15.0194 15.7238 14.9872 15.7023 14.9601 15.6752L13.1098 13.8296C12.727 13.448 12.2079 13.2336 11.6666 13.2336C11.1254 13.2336 10.6063 13.448 10.2235 13.8296L7.54831 16.498C7.46234 16.5779 7.39339 16.6743 7.34557 16.7813C7.29774 16.8884 7.27203 17.0039 7.26996 17.1211C7.26788 17.2383 7.28949 17.3547 7.3335 17.4634C7.37751 17.5721 7.44301 17.6708 7.5261 17.7537C7.60919 17.8366 7.70816 17.9019 7.81711 17.9458C7.92607 17.9897 8.04277 18.0112 8.16026 18.0092C8.27774 18.0071 8.39361 17.9815 8.50094 17.9338C8.60827 17.8861 8.70487 17.8173 8.78498 17.7315L11.4601 15.0631C11.4872 15.036 11.5194 15.0145 11.5549 14.9999C11.5903 14.9852 11.6283 14.9777 11.6666 14.9777C11.705 14.9777 11.743 14.9852 11.7784 14.9999C11.8139 15.0145 11.8461 15.036 11.8731 15.0631L13.7235 16.9088C14.1063 17.2904 14.6254 17.5048 15.1666 17.5048C15.7079 17.5048 16.227 17.2904 16.6098 16.9088L18.9583 14.5674V15.3692C18.9583 15.6007 19.0505 15.8227 19.2146 15.9863C19.3787 16.15 19.6012 16.242 19.8333 16.242C20.0654 16.242 20.2879 16.15 20.452 15.9863C20.6161 15.8227 20.7083 15.6007 20.7083 15.3692V12.4599C20.7083 12.2284 20.6161 12.0064 20.452 11.8428C20.2879 11.6791 20.0654 11.5871 19.8333 11.5871H16.9166C16.6846 11.5871 16.462 11.6791 16.2979 11.8428C16.1338 12.0064 16.0416 12.2284 16.0416 12.4599Z" fill="#F4F4F4"/>
</svg>