<svg xmlns="http://www.w3.org/2000/svg" width="36" height="36" viewBox="0 0 36 36" fill="none">
  <path d="M18 21.2745C20.0715 21.2745 21.9465 20.462 23.304 19.1488C24.66 17.8371 25.5 16.0234 25.5 14.0196C25.5 12.0158 24.66 10.2021 23.304 8.8904C21.9465 7.57727 20.0715 6.76472 18 6.76472C15.9285 6.76472 14.0535 7.57727 12.696 8.8904C11.34 10.2021 10.5 12.0158 10.5 14.0196C10.5 16.0234 11.34 17.8371 12.696 19.1488C13.3917 19.8237 14.2185 20.3589 15.1287 20.7237C16.0389 21.0885 17.0147 21.2757 18 21.2745ZM30 22.7255C30.4927 22.7265 30.9808 22.6333 31.4362 22.4513C31.8916 22.2694 32.3054 22.0022 32.6539 21.6652C33.0023 21.3281 33.2785 20.9279 33.4666 20.4873C33.6547 20.0468 33.751 19.5747 33.75 19.098C33.75 18.0969 33.3315 17.19 32.652 16.5327C32.3041 16.1954 31.8907 15.9279 31.4356 15.7456C30.9805 15.5633 30.4926 15.4699 30 15.4706C29.5073 15.4696 29.0192 15.5628 28.5638 15.7448C28.1084 15.9267 27.6946 16.1939 27.3461 16.5309C26.9977 16.868 26.7215 17.2682 26.5334 17.7088C26.3453 18.1493 26.249 18.6214 26.25 19.098C26.2492 19.5746 26.3457 20.0467 26.5338 20.4871C26.722 20.9276 26.9982 21.3278 27.3466 21.6647C27.695 22.0017 28.1087 22.2689 28.564 22.4509C29.0193 22.633 29.5073 22.7263 30 22.7255ZM30 23.5816C28.0035 23.5816 26.502 24.1707 25.6245 24.9861C23.952 23.6556 21.3075 22.7255 18 22.7255C14.601 22.7255 12.0075 23.6657 10.362 24.9948C9.468 24.175 7.95 23.5816 6 23.5816C2.718 23.5816 0.75 25.1631 0.75 26.7476C0.75 27.5384 2.718 28.3321 6 28.3321C6.906 28.3321 7.719 28.2581 8.4345 28.1391L8.3745 28.5309C8.3745 29.9818 11.9835 31.4328 18 31.4328C23.643 31.4328 27.6255 29.9818 27.6255 28.5309L27.5955 28.1609C28.29 28.2668 29.088 28.3321 30 28.3321C33.0765 28.3321 35.25 27.5384 35.25 26.7476C35.25 25.1631 33.1905 23.5816 30 23.5816ZM6 22.7255C7.035 22.7255 7.9725 22.3207 8.652 21.6634C9.00073 21.3269 9.27726 20.927 9.46569 20.4867C9.65413 20.0465 9.75075 19.5745 9.75 19.098C9.75099 18.6214 9.65467 18.1493 9.46656 17.7088C9.27846 17.2682 9.00227 16.868 8.65385 16.5309C8.30544 16.1939 7.89165 15.9267 7.43623 15.7448C6.98081 15.5628 6.49273 15.4696 6 15.4706C5.50732 15.4698 5.01933 15.5631 4.564 15.7452C4.10868 15.9272 3.69496 16.1944 3.34659 16.5313C2.99821 16.8683 2.72202 17.2685 2.53384 17.709C2.34567 18.1494 2.24921 18.6215 2.25 19.098C2.24901 19.5747 2.34533 20.0468 2.53344 20.4873C2.72154 20.9279 2.99773 21.3281 3.34615 21.6652C3.69456 22.0022 4.10835 22.2694 4.56377 22.4513C5.01919 22.6333 5.50727 22.7265 6 22.7255Z" fill="url(#paint0_linear_219_237)"/>
  <defs>
    <linearGradient id="paint0_linear_219_237" x1="0.749999" y1="1.8311" x2="21.1402" y2="38.6254" gradientUnits="userSpaceOnUse">
      <stop stop-color="#71FF59"/>
      <stop offset="1" stop-color="#33FFE7"/>
    </linearGradient>
  </defs>
</svg>