<svg xmlns="http://www.w3.org/2000/svg" width="28" height="29" viewBox="0 0 28 29" fill="none">
  <mask id="mask0_133_189" style="mask-type:luminance" maskUnits="userSpaceOnUse" x="1" y="5" width="26" height="19">
    <path d="M14 17.1877C14.3477 17.1883 14.6922 17.1206 15.0137 16.9884C15.3351 16.8562 15.6274 16.6621 15.8736 16.4172C16.1199 16.1723 16.3154 15.8814 16.4489 15.5612C16.5824 15.2409 16.6514 14.8976 16.6518 14.5507C16.6513 14.2039 16.5823 13.8606 16.4487 13.5404C16.3152 13.2202 16.1197 12.9294 15.8734 12.6846C15.6272 12.4398 15.335 12.2457 15.0135 12.1136C14.6921 11.9814 14.3477 11.9137 14 11.9143C13.298 11.9132 12.6244 12.1903 12.1272 12.6846C11.63 13.1789 11.35 13.8499 11.3488 14.5501C11.3491 14.897 11.418 15.2403 11.5515 15.5606C11.6849 15.8809 11.8804 16.1718 12.1266 16.4168C12.3728 16.6617 12.6649 16.8559 12.9864 16.9881C13.3078 17.1204 13.6523 17.1882 14 17.1877Z" fill="white" stroke="white" stroke-width="2.33333" stroke-linejoin="round"/>
    <path d="M9.33333 9.25697C6.22241 12.1488 6.22241 16.8386 9.33333 19.7304M18.6667 19.7304C21.7776 16.8386 21.7776 12.1488 18.6667 9.25697M5.75049 6.34769C1.19466 10.878 1.19466 18.2234 5.75049 22.7537M22.2495 22.7537C26.8053 18.2234 26.8053 10.878 22.2495 6.34769" stroke="white" stroke-width="2.33333" stroke-linecap="round" stroke-linejoin="round"/>
  </mask>
  <g mask="url(#mask0_133_189)">
    <path d="M0 0.529129H28V28.4582H0V0.529129Z" fill="#F4F4F4"/>
  </g>
</svg>