<svg xmlns="http://www.w3.org/2000/svg" width="21" height="29" viewBox="0 0 21 29" fill="none">
  <g clip-path="url(#clip0_104_1757)">
    <path d="M9.94413 20.2263C11.4507 20.2248 12.8951 19.6358 13.9604 18.5886C15.0257 17.5414 15.6249 16.1215 15.6265 14.6405V6.26179C15.6265 4.78033 15.0278 3.35956 13.9622 2.31201C12.8965 1.26447 11.4512 0.675964 9.94413 0.675964C8.43708 0.675964 6.99175 1.26447 5.9261 2.31201C4.86045 3.35956 4.26178 4.78033 4.26178 6.26179V14.6405C4.26335 16.1215 4.86252 17.5414 5.92783 18.5886C6.99314 19.6358 8.43756 20.2248 9.94413 20.2263Z" fill="#F4F4F4"/>
    <path d="M19.8882 14.6405V11.8476C19.8882 11.4773 19.7386 11.1221 19.4722 10.8602C19.2057 10.5983 18.8444 10.4512 18.4676 10.4512C18.0909 10.4512 17.7295 10.5983 17.4631 10.8602C17.1967 11.1221 17.0471 11.4773 17.0471 11.8476V14.6405C17.0471 16.4923 16.2987 18.2683 14.9667 19.5777C13.6346 20.8872 11.8279 21.6228 9.94412 21.6228C8.0603 21.6228 6.25364 20.8872 4.92158 19.5777C3.58952 18.2683 2.84118 16.4923 2.84118 14.6405V11.8476C2.84118 11.4773 2.69151 11.1221 2.4251 10.8602C2.15868 10.5983 1.79735 10.4512 1.42059 10.4512C1.04382 10.4512 0.682493 10.5983 0.416081 10.8602C0.149669 11.1221 0 11.4773 0 11.8476L0 14.6405C0.00403142 16.9796 0.860564 19.2398 2.4143 21.0114C3.96804 22.783 6.11612 23.9486 8.46907 24.297L8.52353 24.304V25.8122H4.26176C4.07521 25.8122 3.89048 25.8483 3.71813 25.9185C3.54577 25.9886 3.38917 26.0915 3.25726 26.2212C3.12534 26.3509 3.0207 26.5048 2.94931 26.6742C2.87792 26.8437 2.84118 27.0252 2.84118 27.2086C2.84118 27.392 2.87792 27.5736 2.94931 27.743C3.0207 27.9125 3.12534 28.0664 3.25726 28.1961C3.38917 28.3257 3.54577 28.4286 3.71813 28.4988C3.89048 28.569 4.07521 28.6051 4.26176 28.6051H15.6265C15.813 28.6051 15.9977 28.569 16.1701 28.4988C16.3425 28.4286 16.4991 28.3257 16.631 28.1961C16.7629 28.0664 16.8675 27.9125 16.9389 27.743C17.0103 27.5736 17.0471 27.392 17.0471 27.2086C17.0471 27.0252 17.0103 26.8437 16.9389 26.6742C16.8675 26.5048 16.7629 26.3509 16.631 26.2212C16.4991 26.0915 16.3425 25.9886 16.1701 25.9185C15.9977 25.8483 15.813 25.8122 15.6265 25.8122H11.3647V24.304C16.2065 23.5953 19.8799 19.5409 19.8882 14.6417V14.6405Z" fill="#F4F4F4"/>
  </g>
  <defs>
    <clipPath id="clip0_104_1757">
      <rect width="20.125" height="27.9291" fill="white" transform="translate(0 0.675964)"/>
    </clipPath>
  </defs>
</svg>