<svg xmlns="http://www.w3.org/2000/svg" width="28" height="29" viewBox="0 0 28 29" fill="none">
  <path d="M18.1993 2.44135H9.80074C5.67655 2.44135 2.33331 5.78322 2.33331 9.90572V18.3009C2.33331 22.4232 5.67673 25.7652 9.80074 25.7652H18.1993C22.3235 25.7652 25.6667 22.4234 25.6667 18.3009V9.90572C25.6667 5.78322 22.3235 2.44135 18.1993 2.44135Z" fill="#F4F4F4"/>
  <path d="M9.34121 8.23754C9.66762 7.94232 10.0494 7.71449 10.4645 7.56718C10.8796 7.41988 11.3199 7.35602 11.7599 7.3793V8.48536C11.4708 8.46945 11.1816 8.51513 10.9116 8.61934C10.6416 8.72356 10.3969 8.88392 10.1938 9.08978C9.802 9.63982 9.61391 10.3085 9.66163 10.9816V17.2007C9.61388 17.8738 9.80198 18.5425 10.1938 19.0926C10.3953 19.3139 10.6435 19.4879 10.9206 19.6018C11.1977 19.7158 11.4967 19.7669 11.7961 19.7515V20.8334C11.3557 20.8558 10.9151 20.791 10.5 20.6426C10.0848 20.4942 9.70329 20.2652 9.37738 19.9689C9.05556 19.6081 8.81079 19.1857 8.65799 18.7275C8.50519 18.2693 8.44757 17.7848 8.48864 17.3036V10.903C8.44368 10.4244 8.49602 9.94159 8.64251 9.48359C8.78901 9.02559 9.02665 8.60178 9.34121 8.23754Z" fill="#7E858B"/>
  <path d="M13.2171 8.23754C13.5439 7.94298 13.9257 7.71556 14.3407 7.5683C14.7556 7.42103 15.1957 7.35681 15.6356 7.37929V8.48536C15.3455 8.46938 15.0554 8.515 14.7844 8.6192C14.5134 8.72339 14.2677 8.88378 14.0634 9.08977C13.6738 9.64061 13.4878 10.3092 13.5373 10.9816V17.2007C13.4878 17.873 13.6737 18.5417 14.0634 19.0926C14.2655 19.3132 14.5139 19.4866 14.7909 19.6005C15.0679 19.7144 15.3666 19.7659 15.6659 19.7513V20.8333C15.2205 20.8591 14.7745 20.7959 14.354 20.6475C13.9334 20.499 13.5468 20.2683 13.2169 19.9689C12.8963 19.6077 12.6528 19.1852 12.5011 18.7271C12.3493 18.2688 12.2925 17.7845 12.3342 17.3036V10.903C12.2929 10.4223 12.3498 9.93817 12.5015 9.48C12.6532 9.02184 12.8968 8.59916 13.2171 8.23754Z" fill="#F7F8F9"/>
  <path d="M17.105 8.23756C17.7654 7.64325 18.6352 7.33459 19.5235 7.37932V8.48538C19.2326 8.46895 18.9414 8.51434 18.6694 8.61854C18.3974 8.72273 18.1506 8.88336 17.9455 9.0898C17.561 9.65107 17.3856 10.3288 17.4495 11.0056V17.2007C17.4002 17.8731 17.5862 18.5418 17.9756 19.0925C18.178 19.3126 18.4264 19.4857 18.7032 19.5996C18.9801 19.7134 19.2786 19.7652 19.5777 19.7512V20.8332C18.6887 20.8755 17.8191 20.5647 17.1594 19.9687C16.8337 19.6095 16.5843 19.1881 16.4264 18.73C16.2684 18.2719 16.2052 17.7866 16.2405 17.3034V10.9025C16.1983 10.4231 16.253 9.94017 16.4015 9.48231C16.55 9.02445 16.7892 8.60102 17.105 8.2372V8.23756Z" fill="#7E858B"/>
</svg>