<svg xmlns="http://www.w3.org/2000/svg" width="36" height="36" viewBox="0 0 36 36" fill="none">
  <path d="M18 3.34639C13.8577 3.34639 10.5 6.59441 10.5 10.6013C10.5 14.6082 13.8577 17.8562 18 17.8562C22.1423 17.8562 25.5 14.6082 25.5 10.6013C25.5 6.59441 22.1423 3.34639 18 3.34639ZM9.1875 20.7582C8.34225 20.7582 7.53161 21.0829 6.93386 21.661C6.33611 22.2391 6.0002 23.0231 6 23.8408V24.3856C6 27.1098 7.4565 29.1499 9.69 30.4652C11.8875 31.7588 14.8395 32.366 18 32.366C21.1605 32.366 24.1125 31.7588 26.31 30.4652C28.5435 29.1499 30 27.1098 30 24.3856V23.8408C30 23.4359 29.9175 23.035 29.7574 22.6609C29.5972 22.2869 29.3624 21.947 29.0664 21.6608C28.7704 21.3745 28.419 21.1475 28.0322 20.9926C27.6455 20.8377 27.2311 20.7581 26.8125 20.7582H9.1875Z" fill="url(#paint0_linear_219_235)"/>
  <defs>
    <linearGradient id="paint0_linear_219_235" x1="6" y1="-2.45753" x2="34.2294" y2="27.6653" gradientUnits="userSpaceOnUse">
      <stop stop-color="#71FF59"/>
      <stop offset="1" stop-color="#33FFE7"/>
    </linearGradient>
  </defs>
</svg>