<svg xmlns="http://www.w3.org/2000/svg" width="28" height="29" viewBox="0 0 28 29" fill="none">
  <path fill-rule="evenodd" clip-rule="evenodd" d="M2.33331 10.2768C2.33331 9.3509 2.70206 8.46291 3.35844 7.8082C4.01482 7.15348 4.90505 6.78567 5.83331 6.78567H22.1666C23.0949 6.78567 23.9851 7.15348 24.6415 7.8082C25.2979 8.46291 25.6666 9.3509 25.6666 10.2768V19.5865C25.6666 20.5124 25.2979 21.4004 24.6415 22.0551C23.9851 22.7098 23.0949 23.0776 22.1666 23.0776H5.83331C4.90505 23.0776 4.01482 22.7098 3.35844 22.0551C2.70206 21.4004 2.33331 20.5124 2.33331 19.5865V10.2768ZM12.8333 14.9317C12.8333 14.623 12.9562 14.327 13.175 14.1088C13.3938 13.8905 13.6906 13.7679 14 13.7679C14.3094 13.7679 14.6061 13.8905 14.8249 14.1088C15.0437 14.327 15.1666 14.623 15.1666 14.9317C15.1666 15.2403 15.0437 15.5363 14.8249 15.7545C14.6061 15.9728 14.3094 16.0954 14 16.0954C13.6906 16.0954 13.3938 15.9728 13.175 15.7545C12.9562 15.5363 12.8333 15.2403 12.8333 14.9317ZM14 11.4405C13.0717 11.4405 12.1815 11.8083 11.5251 12.463C10.8687 13.1178 10.5 14.0057 10.5 14.9317C10.5 15.8576 10.8687 16.7455 11.5251 17.4003C12.1815 18.055 13.0717 18.4228 14 18.4228C14.9282 18.4228 15.8185 18.055 16.4749 17.4003C17.1312 16.7455 17.5 15.8576 17.5 14.9317C17.5 14.0057 17.1312 13.1178 16.4749 12.463C15.8185 11.8083 14.9282 11.4405 14 11.4405Z" fill="#F4F4F4"/>
</svg>