<svg xmlns="http://www.w3.org/2000/svg" width="60" height="60" viewBox="0 0 60 60" fill="none">
<g clip-path="url(#clip0_104_1746)">
<path d="M13.0909 36.5023C13.0909 41.6725 13.0909 44.2576 14.8858 45.8901C16.6807 47.5227 19.5229 47.5227 25.2073 47.5227L31.8285 47.5227C38.624 47.5227 42.0218 47.5227 42.6574 45.7262C43.293 43.9296 40.6177 41.8875 35.2671 37.8031L13.0909 20.875L13.0909 36.5023Z" fill="url(#paint0_linear_104_1746)"/>
<path d="M13.0909 24.324C13.0909 19.1538 13.0909 16.5687 14.8858 14.9361C16.6807 13.3036 19.5229 13.3036 25.2073 13.3036L31.8285 13.3036C38.624 13.3036 42.0218 13.3036 42.6574 15.1001C43.293 16.8966 40.6177 18.9388 35.2671 23.0231L13.0909 39.9512L13.0909 24.324Z" fill="url(#paint1_linear_104_1746)"/>
</g>
<defs>
<linearGradient id="paint0_linear_104_1746" x1="-3.1579" y1="18.6291" x2="0.661875" y2="49.971" gradientUnits="userSpaceOnUse">
<stop stop-color="#47FFBD" stop-opacity="0.2"/>
<stop offset="1" stop-color="#62FF48"/>
</linearGradient>
<linearGradient id="paint1_linear_104_1746" x1="-3.1579" y1="42.1972" x2="0.661875" y2="10.8553" gradientUnits="userSpaceOnUse">
<stop stop-color="#47FFBD" stop-opacity="0.2"/>
<stop offset="1" stop-color="#62FF48"/>
</linearGradient>
<clipPath id="clip0_104_1746">
<rect width="60" height="58.8506" fill="white" transform="translate(0 0.979736)"/>
</clipPath>
</defs>
</svg>
