<svg xmlns="http://www.w3.org/2000/svg" width="28" height="28" viewBox="0 0 28 28" fill="none">
  <path d="M19.6 4.2C20.6713 4.19994 21.7021 4.60925 22.4816 5.34419C23.261 6.07914 23.7302 7.08415 23.793 8.1536L23.8 8.4V14H18.2L17.9536 14.007C16.9266 14.0673 15.9574 14.5025 15.2299 15.2299C14.5025 15.9574 14.0673 16.9266 14.007 17.9536L14 18.2V23.8H8.4C7.32871 23.8001 6.29788 23.3907 5.51844 22.6558C4.73899 21.9209 4.26985 20.9158 4.207 19.8464L4.2 19.6V8.4C4.19994 7.3287 4.60926 6.29788 5.3442 5.51843C6.07914 4.73899 7.08415 4.26985 8.1536 4.207L8.4 4.2H19.6ZM23.66 15.4014C23.5515 15.7343 23.3815 16.0439 23.1588 16.3142L22.9796 16.5102L16.5102 22.9796C16.1966 23.2932 15.8158 23.5256 15.4014 23.6614L15.4 18.2L15.407 17.99C15.4571 17.3234 15.7441 16.6966 16.216 16.2232C16.6879 15.7497 17.3137 15.4607 17.9802 15.4084L18.2 15.4L23.66 15.4014Z" fill="#66E650"/>
</svg>