<svg xmlns="http://www.w3.org/2000/svg" width="28" height="28" viewBox="0 0 28 28" fill="none">
  <path d="M5.83333 3.57584H22.1667C23.0949 3.57584 23.9852 3.94459 24.6415 4.60096C25.2979 5.25734 25.6667 6.14758 25.6667 7.07584V17.5758C25.6667 18.5041 25.2979 19.3943 24.6415 20.0507C23.9852 20.7071 23.0949 21.0758 22.1667 21.0758H5.83333C4.90507 21.0758 4.01484 20.7071 3.35846 20.0507C2.70208 19.3943 2.33333 18.5041 2.33333 17.5758L2.33333 7.07584C2.33333 6.14758 2.70208 5.25734 3.35846 4.60096C4.01484 3.94459 4.90507 3.57584 5.83333 3.57584ZM10.5 22.2425H17.5C17.8094 22.2425 18.1062 22.3654 18.325 22.5842C18.5438 22.803 18.6667 23.0998 18.6667 23.4092C18.6667 23.7186 18.5438 24.0153 18.325 24.2341C18.1062 24.4529 17.8094 24.5758 17.5 24.5758H10.5C10.1906 24.5758 9.89383 24.4529 9.67504 24.2341C9.45625 24.0153 9.33333 23.7186 9.33333 23.4092C9.33333 23.0998 9.45625 22.803 9.67504 22.5842C9.89383 22.3654 10.1906 22.2425 10.5 22.2425Z" fill="#66E650"/>
</svg>